# xmcd CD database file
#
# Track frame offsets:
#	182
#	75262
#	99457
#	111020
#	146602
#	166527
#	192752
#	204742
#
# Disc length: 2927 seconds
#
# Revision: 0
# Processed by: cddbd v1.5.1PL0 Copyright (c) Steve Scherf et al.
# Submitted via: CDex 1.51
#
DISCID=5a0b6d08
DTITLE=Heinz Leonhardsberger - It is
DYEAR=1988
DGENRE=New Age
TTITLE0=It is
TTITLE1=Hot Source
TTITLE2=Why up - no down
TTITLE3=Austr(al)ia
TTITLE4=Dauphin Blue
TTITLE5=Raga Muffin
TTITLE6=6 - What shell's
TTITLE7=Juz'd Jaz'd
EXTD=YEAR: 1988
EXTT0=
EXTT1=
EXTT2=
EXTT3=
EXTT4=
EXTT5=
EXTT6=
EXTT7=
PLAYORDER=
